# xmcd
#
# Track frame offsets: 
#        150
#        17607
#        27787
#        39515
#        55332
#        67560
#        79330
#        92227
#        107572
#        122005
#        137127
#        152145
#        170507
#
# Disc length: 2407 seconds
#
# Revision: 3
# Processed by: cddbd v1.5.2PL0 Copyright (c) Steve Scherf et al.
# Submitted via: ExactAudioCopy v1.3
#
DISCID=9f09650d
DTITLE=John Denver - Christmas Like a Lullaby
DYEAR=1990
DGENRE=Country
TTITLE0=Christmas Like A Lullaby
TTITLE1=The First Noel
TTITLE2=Away in a Manger
TTITLE3=The Children of Bethlehem
TTITLE4=Rudolph the Red Nosed Reindeer
TTITLE5=White Christmas
TTITLE6=Marvelous Toy
TTITLE7=Blue Christmas
TTITLE8=Jingle Bells
TTITLE9=Little Drummer Boy
TTITLE10=Mary's Boy Child
TTITLE11=The Christmas Song
TTITLE12=Have Yourself a Merry Little Christmas
EXTD=
EXTT0=
EXTT1=
EXTT2=
EXTT3=
EXTT4=
EXTT5=
EXTT6=
EXTT7=
EXTT8=
EXTT9=
EXTT10=
EXTT11=
EXTT12=
PLAYORDER=
